<?xml version="1.0" encoding="UTF-8" standalone="no"?>
<svg
   height="197.83879"
   width="202.14937"
   version="1.1"
   id="svg6"
   sodipodi:docname="logo2.svg"
   inkscape:version="1.1.1 (3bf5ae0d25, 2021-09-20, custom)"
   viewBox="0 0 202.14938 197.83879"
   xmlns:inkscape="http://www.inkscape.org/namespaces/inkscape"
   xmlns:sodipodi="http://sodipodi.sourceforge.net/DTD/sodipodi-0.dtd"
   xmlns="http://www.w3.org/2000/svg"
   xmlns:svg="http://www.w3.org/2000/svg">
  <defs
     id="defs10" />
  <sodipodi:namedview
     id="namedview8"
     pagecolor="#ffffff"
     bordercolor="#666666"
     borderopacity="1.0"
     inkscape:pageshadow="2"
     inkscape:pageopacity="0.0"
     inkscape:pagecheckerboard="0"
     showgrid="false"
     inkscape:zoom="6.0625"
     inkscape:cx="43.381443"
     inkscape:cy="130.30928"
     inkscape:window-width="2560"
     inkscape:window-height="1395"
     inkscape:window-x="0"
     inkscape:window-y="0"
     inkscape:window-maximized="0"
     inkscape:current-layer="svg6"
     width="145px"
     lock-margins="true"
     scale-x="1"
     fit-margin-top="20"
     fit-margin-left="20"
     fit-margin-right="20"
     fit-margin-bottom="20" />
  <path
     style="fill:#a0262c;fill-opacity:1;stroke-width:0.174954"
     d="m 108.92968,175.60198 c -0.7,-0.2 -1.2,-0.7 -3.6,-3.5 -1.4,-1.6 -2.6,-3 -2.8,-3.1 -0.2,-0.1 -0.7,-0.1 -1.1,-0.1 l -0.8,0.1 -2.300004,3.2 c -1.2,1.8 -2.4,3.4 -2.6,3.6 -0.6,0.6 -1.6,0.7 -2.4,0.2 -0.5,-0.3 -0.9,-0.8 -2.6,-4 l -2,-3.6 -1,-0.2 -0.9,-0.1 -3.1,2.9 c -1.6,1.6 -3.2,3 -3.5,3.1 -0.6,0.2 -1.7,-0.1 -2.2,-0.7 -0.2,-0.3 -0.8,-1.8 -1.6,-4.4 l -1.3,-3.9 -0.6,-0.2 c -0.3,-0.1 -0.7,-0.3 -0.9,-0.3 -0.2,0 -1.6,0.7 -3.8,2.2 -4,2.5 -4.4,2.7 -5.5,1.8 l -0.8,-0.5 -0.5,-4.4 -0.6,-4.5 -0.8,-0.4 -0.7,-0.4 -3.7,1.4 c -2,0.9 -3.9,1.5 -4.2,1.6 -1.1,0.1 -2.2,-0.7 -2.3,-1.7 -0.1,-0.3 0,-2.3 0.2,-4.5 l 0.4,-4 -0.7,-0.6 -0.6,-0.5 -4.4,0.7 -4.4,0.7 -0.7,-0.5 c -1.2,-0.9 -1.2,-1.4 0.2,-5.9 0.6,-2.1 1.1,-3.9 1,-4 0,-0.2 -0.8,-1.4 -1,-1.5 -0.1,0 -2,-0.1 -4.2,-0.1 -2.7,-0.1 -4.2,-0.2 -4.6,-0.3 -0.7,-0.3 -1.3,-1.2 -1.2,-2 0,-0.3 0.9,-2.2 1.9,-4.2 l 1.9,-3.7 -0.4,-0.9 -0.4,-0.9 -4.1,-0.9 c -4.6,-0.9 -5,-1.1 -5.2,-2.4 -0.1,-0.4 0,-0.9 0.1,-1.2 0,-0.2 1.2,-1.8 2.6,-3.5 2.5,-3.1 2.5,-3.1 2.4,-3.9 -0.1,-0.4 -0.2,-0.9 -0.3,-1 0,-0.1 -1.8,-1 -3.9,-1.9 -3.3,-1.4 -3.9,-1.8 -4.3,-2.2 -0.4,-0.7 -0.4,-1.4 -0.1,-2.1 0.1,-0.3 1.6,-1.6 3.3,-3.1 2.1,-1.7 3.2,-2.8 3.2,-3 0.1,-0.2 0,-0.7 0,-1.1 -0.1,-0.6 -0.2,-0.7 -3,-2.600003 -4,-2.8 -4.2,-2.9 -4.4,-3.9 -0.16,-1.4 0.2,-1.7 4.3,-4 l 3.6,-2 0.2,-0.9 c 0.1,-0.5 0.1,-1.1 0,-1.2 -0.1,0 -1.4,-1.4 -2.9,-2.9 -1.4,-1.5 -2.8,-3 -2.9,-3.3 -0.2,-0.4 -0.2,-0.7 0,-1.2 0.4,-1.2 0.7,-1.4 4.6,-2.7 2,-0.6 3.8,-1.2 4,-1.2 0.3,-0.2 0.9,-1.5 0.8,-1.9 0,-0.1 -1,-1.7 -2.2,-3.5 -2.3,-3.7 -2.6,-4.3 -2,-5.3 0.6,-1 0.8,-1.1 5.3,-1.6 l 4.2,-0.4 0.4,-0.7 c 0.3,-0.4 0.5,-0.9 0.5,-1 -0.1,-0.1 -0.7,-1.8 -1.5,-3.7 -1.6,-4.1 -1.7,-4.6 -1.2,-5.5 0.7,-1.1 1,-1.1 5.7,-0.7 l 4.2,0.3 0.6,-0.6 0.6,-0.7 -0.7,-4.3 -0.8,-4.4 0.5,-0.7 c 0.9,-1.3 1.1,-1.3 5.8,0.1 l 4.1,1.2 0.8,-0.6 0.8,-0.5 v -4.2 c 0.1,-4 0.1,-4.3 0.5,-4.9 0.5,-0.7 1.4,-1.1 2.1,-0.9 0.3,0 2.1,0.9 4,1.9 3.1,1.6 3.6,1.8 4,1.6 1.4,-0.4 1.3,-0.3 2.2,-4.5 0.5,-2.1 1,-4.1 1.2,-4.4 0.5,-0.8 1.1,-1.1 2,-1 0.5,0.1 1.3,0.6 3.9,2.7 l 3.3,2.6 1,-0.2 c 0.5,-0.2 1,-0.4 1,-0.5 0.1,-0.1 0.8,-1.8 1.7,-3.8 1.7,-4 2,-4.4 3.2,-4.4 1.1,-0.1 1.4,0.2 4.3,3.7 1.3,1.6 2.4,2.9 2.5,2.9 0,0.1 0.4,0.1 1,0 h 1 l 2.2,-3.3 c 2.500004,-3.6 3.100004,-4.14 4.000004,-4.1 1.2,0 1.6,0.6 3.7,4.4 l 2,3.6 1,0.1 1,0.1 3,-2.8 c 3.3,-3.3 3.7,-3.5 4.9,-3 0.9,0.4 1.2,1 2.5,5.1 0.6,1.9 1.1,3.6 1.3,3.7 0.1,0.1 0.5,0.3 0.9,0.4 l 0.7,0.3 3.4,-2.2 c 1.9,-1.2 3.7,-2.3 4,-2.4 0.6,-0.2 1.7,0.2 2.2,0.9 0.3,0.5 0.4,0.8 0.8,4.7 l 0.4,4.1 0.6,0.4 c 0.4,0.2 0.8,0.4 0.9,0.5 0.1,0 2,-0.6 4.1,-1.5 2.5,-1 4.1,-1.5 4.4,-1.5 0.7,0 1.6,0.8 1.8,1.4 0.2,0.3 0.1,1.9 -0.1,4.7 -0.4,4.5 -0.5,4.1 0.6,5.1 l 0.3,0.3 4.1,-0.8 c 4.5,-0.8 5,-0.8 5.7,0 0.8,0.9 0.8,1.2 -0.5,5.5 l -1.2,4.2 0.5,0.6 c 0.2,0.4 0.5,0.7 0.7,0.8 0.1,0.1 1.9,0.1 3.9,0.2 4.3,0 5,0.1 5.6,0.9 0.8,0.9 0.7,1.4 -1.3,5.4 -1,1.9 -1.9,3.6 -1.9,3.7 -0.1,0.4 0.6,1.9 0.9,2 0.2,0 2,0.4 4,0.8 2,0.4 3.8,0.9 4,1 0.6,0.3 1.2,1.2 1.2,2 -0.1,0.5 -0.4,1 -1.5,2.4 -0.8,1 -2,2.6 -2.7,3.5 l -1.2,1.6 0.3,0.9 0.3,0.9 3.6,1.6 c 1.9,0.8 3.7,1.7 4,1.8 0.6,0.5 0.9,1.4 0.7,2.2 -0.2,0.6 -0.7,1.2 -4.3,4.1 l -2.4,2 0.1,0.8 c 0,0.5 0,0.9 0,1 0,0.2 1.6,1.3 3.5,2.6 3.7,2.600003 4.1,3.000003 3.9,4.100003 -0.2,1.1 -0.7,1.4 -4.4,3.4 -3.8,2.2 -3.7,2.1 -3.8,3.5 0,0.5 0.3,0.9 2.8,3.4 1.5,1.6 2.9,3 3,3.3 0.3,0.6 0.2,1.6 -0.3,2.2 -0.4,0.5 -0.7,0.7 -4.5,1.9 l -4,1.3 -0.3,0.9 -0.3,0.9 2.3,3.6 c 1.2,1.9 2.3,3.7 2.3,3.9 0.1,0.5 -0.4,1.5 -0.9,1.9 -0.3,0.4 -0.8,0.5 -4.7,0.9 l -4.3,0.5 -0.4,0.8 -0.5,0.8 1.6,3.9 c 1.7,4.4 1.8,4.7 0.9,5.7 -0.6,0.7 -1.2,0.8 -5.6,0.4 -2,-0.2 -3.8,-0.3 -4,-0.3 -0.1,0 -0.4,0.3 -0.7,0.7 l -0.6,0.7 0.8,4 c 0.8,4.5 0.8,4.7 0,5.6 -0.8,0.8 -1.5,0.8 -5.6,-0.4 -2.1,-0.7 -4,-1.1 -4.1,-1.1 -0.1,0 -0.5,0.3 -0.9,0.6 l -0.6,0.5 -0.1,4.1 c 0,2.9 -0.1,4.3 -0.3,4.6 -0.3,0.7 -1.3,1.3 -1.9,1.3 -0.3,-0.1 -2.2,-0.9 -4.2,-2 -4,-2 -3.8,-2 -5.1,-1.3 -0.4,0.3 -0.5,0.6 -1.3,4.2 -0.9,4.6 -1.2,5.1 -2.6,5.3 -0.9,0.2 -1.1,0.1 -4.9,-3 l -2.7,-2.2 -0.9,0.1 c -0.6,0.1 -1,0.3 -1.1,0.5 -0.2,0.1 -1,1.9 -1.8,3.9 -0.9,1.9 -1.7,3.7 -1.9,3.9 -0.4,0.4 -1.4,0.6 -1.8,0.5 z m 2.2,-21.9 c 3.9,-0.9 8.1,-2.4 11.8,-4.2 1.9,-0.8 6,-3.2 6.2,-3.5 0.1,-0.1 0.3,-2.7 0.5,-5.8 0.2,-3.4 0.4,-6 0.6,-6.5 0.4,-1.1 1.3,-2 2.4,-2.5 0.9,-0.3 1.2,-0.3 6.4,0 l 5.4,0.4 0.7,-0.8 c 0.7,-1 3.7,-5.9 3.7,-6.1 0,0 -5.6,0.7 -12.5,1.7 l -12.5,1.8 -1.2,-0.4 c -1.5,-0.5 -4.1,-2.5 -5.5,-4.1 -1.6,-2.1 -2.2,-3.3 -4.6,-9.9 -0.6,-1.9 -1.4,-3.9 -1.7,-4.6 -1.6,-3.6 -4.5,-5.9 -8,-6.2 -0.9,-0.1 -2.7,0.1 -9.000004,1.1 l -7.8,1.1 0.7,5.3 0.8,5.3 6.9,-1 c 3.8,-0.6 7.100004,-1 7.200004,-1 0.3,0.1 0.5,1 1.6,8.6 0.7,4.7 1.2,8.6 1.2,8.6 0,0 -10.600004,1.7 -23.600004,3.6 l -23.6,3.6 1.7,1.6 c 1,0.9 2.3,2.1 3,2.6 l 1.2,0.9 4.8,-1.8 c 2.7,-1 5.1,-1.8 5.4,-1.9 1.4,-0.2 3.1,0.6 3.9,1.8 0.2,0.3 1.3,3 2.4,6 1.2,3.2 2.1,5.4 2.3,5.5 0.1,0.1 1.5,0.4 3,0.7 8.5,2 17.800004,2.1 26.200004,0.1 z m 30.7,-9 c 1.4,-0.9 2.3,-3 2,-4.6 -0.4,-2.5 -2.8,-4.3 -5.4,-3.9 -2.7,0.4 -4.3,2.6 -3.9,5.3 0.3,2.3 1.9,3.8 4.2,4.1 0.8,0.1 2.3,-0.4 3.1,-0.9 z m -68.400004,9.9 c 1.6,-1 2.4,-3.1 1.9,-5 -0.6,-2.5 -2.8,-3.9 -5.3,-3.5 -1.1,0.1 -1.4,0.2 -2.1,0.8 -1.6,1.2 -2.2,2.9 -1.7,4.8 0.4,2.2 2.2,3.7 4.3,3.7 1.1,0 2.1,-0.2 2.9,-0.8 z m 71.000004,-47.6 c 3,-0.9 4.5,-2.6 5,-5.5 0.1,-0.7 0,-1.800003 -0.2,-3.700003 -0.2,-2.1 -0.3,-2.8 -0.1,-3.1 0.2,-0.2 0.8,-0.3 3.2,-0.7 3,-0.4 3,-0.4 3,-0.8 0.1,-0.6 -0.8,-6.5 -1.2,-8.2 l -0.3,-1.4 -5.8,-1.6 c -6.2,-1.7 -6.9,-2 -7.8,-3.3 -0.4,-0.6 -0.5,-0.9 -0.5,-1.8 -0.1,-0.9 0.1,-2 1.8,-7.9 l 1.9,-6.8 -0.4,-0.5 c -0.9,-1.1 -4.4,-4.9 -5.5,-5.9 -4.6,-4.3 -9.3,-7.4 -14.9,-10.1 -6.7,-3.1 -13.3,-4.9 -20.8,-5.4 l -1.6,-0.1 -3.700004,4.8 c -3.2,4.1 -3.8,4.8 -4.5,5.1 -1.1,0.6 -2.3,0.6 -3.4,0.2 -0.4,-0.1 -2.6,-1.8 -5,-3.6 l -4.3,-3.4 -1.5,0.5 c -8.6,3.3 -16.3,8.6 -22.4,15.3 -1.5,1.6 -5.3,6.7 -5.3,6.9 0,0.1 14.1,-1.9 31.2,-4.4 29.300004,-4.3 31.300004,-4.6 32.600004,-4.5 10.2,0.9 17.9,6.4 20,14.4 1.1,4.4 0,8.8 -3.4,13.4 -1.2,1.7 -3.7,4.4 -5,5.4 -0.3,0.2 -0.5,0.5 -0.4,0.6 0,0.1 0.6,0.5 1.3,0.9 1.8,1 4,2.7 5,3.7 1.7,1.9 3.3,4.600003 4.5,8.000003 0.4,1 0.8,2 1,2.2 0.6,0.9 2.3,1.6 4.1,1.7 1.4,0.1 2,0.1 3.4,-0.4 z m -85.100004,-6.2 -2.7,-18.300003 -4.1,0.6 c -2.2,0.3 -4,0.7 -4,0.7 0,0.1 0.7,1.2 1.6,2.6 1.3,2.1 1.5,2.5 1.7,3.5 0.1,1.2 -0.2,2.2 -1,3.2 -0.4,0.4 -2.4,1.8 -5.4,3.7 l -4.8,3 v 1.000003 c 0,1.5 1.3,9.6 1.8,11.4 0.9,3.3 2.8,8.6 3.2,9.1 0.1,0.1 3.6,-0.4 8.3,-1.1 l 8.1,-1.2 z M 104.62968,86.601977 c 3.1,-1.1 4.7,-2.9 4.7,-5.1 -0.1,-2.6 -2.1,-4.4 -5.6,-5 l -1.3,-0.2 -10.100004,1.5 -10.2,1.5 0.8,5.3 0.8,5.4 9.8,-1.4 c 8.200004,-1.3 10.000004,-1.6 11.100004,-2 z m 48.3,-9.9 c 2.9,-1.9 2.8,-6.2 -0.1,-8 -2.7,-1.7 -6.5,0 -7.1,3.2 -0.2,0.8 0,2.2 0.5,3.1 1.2,2.4 4.4,3.2 6.7,1.7 z m -109.900004,16 c 0.8,-0.6 1.7,-1.8 1.9,-2.8 0.2,-0.8 0,-2.7 -0.5,-3.5 -0.2,-0.3 -0.7,-0.9 -1.1,-1.2 -2.5,-2.1 -6.3,-1.1 -7.4,1.9 -1,2.6 0.3,5.3 2.9,6.2 1,0.3 1.3,0.3 2.4,0.1 0.7,-0.2 1.4,-0.4 1.8,-0.7 z m 48.2,-49.5 c 1.9,-0.9 2.9,-2.8 2.6,-5 -0.3,-1.4 -0.8,-2.3 -1.8,-3.1 -1.1,-0.8 -2.1,-1 -3.5,-0.8 -1.5,0.2 -2.6,0.9 -3.4,2.1 -1.3,2.1 -0.8,4.7 1.1,6.2 1.5,1.2 3.3,1.4 5,0.6 z"
     id="path6969" />
  <path
     style="fill:#c8ab37;stroke-width:0.174954"
     d="m 105.22968,176.70198 c -0.8,-0.3 -1.2,-0.8 -3.4,-3.7 -1.2,-1.8 -2.400004,-3.3 -2.600004,-3.4 -0.1,-0.1 -0.6,-0.2 -1.1,-0.1 h -0.8 l -2.5,3.1 c -1.3,1.6 -2.6,3.1 -2.8,3.3 -0.7,0.5 -1.7,0.5 -2.4,0.1 -0.5,-0.4 -0.9,-0.9 -2.4,-4.2 l -1.7,-3.8 -1,-0.2 -0.9,-0.3 -3.2,2.7 c -1.8,1.5 -3.5,2.8 -3.7,2.9 -0.7,0.2 -1.7,-0.2 -2.2,-0.8 -0.2,-0.4 -0.7,-1.9 -1.3,-4.5 l -1,-4 -0.5,-0.3 c -0.3,-0.2 -0.8,-0.3 -1,-0.4 -0.2,0 -1.6,0.7 -3.9,1.9 -4.2,2.3 -4.6,2.4 -5.7,1.5 l -0.6,-0.6 -0.3,-4.5 -0.3,-4.4 -0.7,-0.5 -0.6,-0.5 -3.9,1.2 c -2.1,0.6 -4,1.2 -4.3,1.2 -1.1,0.1 -2.1,-0.8 -2.2,-1.9 0,-0.2 0.3,-2.2 0.6,-4.4 l 0.6,-4 -0.5,-0.6 -0.6,-0.6 -4.5,0.4 -4.4,0.4 -0.7,-0.6 c -1.1,-0.9 -1,-1.4 0.6,-5.8 0.8,-2.1 1.4,-3.8 1.4,-3.9 0,-0.3 -0.8,-1.5 -1,-1.6 0,0 -1.9,-0.2 -4.1,-0.4 -2.7,-0.3 -4.2,-0.5 -4.6,-0.7 -0.7,-0.3 -1.2,-1.3 -1.1,-2 0.1,-0.3 1.1,-2.1 2.3,-4.1 l 2.2,-3.6 -0.4,-0.9 -0.3,-0.9 -4.1,-1.2 c -4.5,-1.3 -4.9,-1.5 -5,-2.8 0,-0.4 0.1,-0.9 0.2,-1.1 0.1,-0.2 1.4,-1.7 2.9,-3.4 2.7,-2.9 2.7,-2.9 2.6,-3.7 0,-0.4 -0.1,-0.8 -0.1,-1 -0.1,-0.1 -1.8,-1.1 -3.9,-2.2 -3.1,-1.6 -3.7,-2 -4,-2.5 -0.4,-0.7 -0.4,-1.4 0,-2.1 0.1,-0.2 1.7,-1.5 3.6,-2.8 2.1,-1.600003 3.3,-2.600003 3.4,-2.800003 0,-0.2 0,-0.7 0,-1.1 -0.1,-0.6 -0.2,-0.7 -2.8,-2.8 -3.8,-3.1 -4,-3.2 -4.1,-4.2 -0.1,-1.4 0.4,-1.7 4.6,-3.7 l 3.7,-1.7 0.3,-0.9 c 0.1,-0.5 0.1,-1 0.1,-1.1 -0.1,-0.2 -1.3,-1.6 -2.7,-3.2 -1.3,-1.6 -2.5,-3.2 -2.7,-3.5 -0.1,-0.4 -0.1,-0.7 0.1,-1.2 0.5,-1.2 0.8,-1.3 4.8,-2.3 2.1,-0.5 3.9,-0.9 4.1,-1 0.3,-0.1 1,-1.4 1,-1.8 0,-0.1 -0.9,-1.8 -2,-3.7 -2,-3.8 -2.3,-4.5 -1.6,-5.3 0.6,-1.1 0.9,-1.1 5.4,-1.3 l 4.2,-0.1 0.5,-0.7 c 0.3,-0.4 0.5,-0.8 0.5,-0.9 0,-0.1 -0.5,-1.9 -1.2,-3.9 -1.3,-4.1 -1.4,-4.7 -0.8,-5.4 0.8,-1.1 1.1,-1.2 5.8,-0.4 l 4.1,0.7 0.7,-0.7 0.7,-0.6 -0.5,-4.3 -0.4,-4.4 0.5,-0.7 c 1,-1.2 1.2,-1.2 5.8,0.5 l 4,1.5 0.8,-0.5 0.8,-0.5 0.4,-4.2 c 0.3,-3.9 0.4,-4.2 0.8,-4.8 0.5,-0.7 1.4,-1 2.2,-0.8 0.2,0.1 2,1.1 3.8,2.2 3,1.9 3.5,2.1 3.9,2 1.4,-0.4 1.4,-0.3 2.5,-4.4 0.7,-2.1 1.3,-4 1.5,-4.3 0.6,-0.8 1.3,-1.1 2.1,-0.9 0.5,0.1 1.3,0.8 3.8,3 l 3,2.9 1,-0.2 c 0.5,-0.1 1,-0.3 1.1,-0.4 0,-0.1 0.9,-1.8 1.9,-3.7 2,-3.8 2.3,-4.2 3.6,-4.1 1,0 1.3,0.3 4,4 1.2,1.7 2.200004,3.1 2.200004,3.1 0,0 0.5,0.1 1,0.1 h 1 l 2.5,-3.1 c 2.8,-3.4 3.3,-3.9 4.3,-3.8 1.1,0.1 1.5,0.7 3.3,4.7 l 1.7,3.7 1,0.2 1,0.2 3.2,-2.7 c 3.5,-2.9 4,-3.2 5.1,-2.6 0.9,0.5 1.1,1.1 2.1,5.3 0.5,2 0.9,3.6 1,3.8 0.1,0.1 0.6,0.3 0.9,0.5 l 0.7,0.3 3.6,-2 c 2,-1.1 3.8,-2 4.1,-2.1 0.7,-0.1 1.7,0.4 2.1,1.1 0.4,0.5 0.4,0.9 0.5,4.7 l 0.2,4.2 0.5,0.4 c 0.4,0.2 0.7,0.5 0.8,0.6 0.2,0 2.1,-0.5 4.3,-1.2 2.5,-0.8 4.1,-1.2 4.5,-1.2 0.6,0.1 1.5,0.9 1.7,1.5 0.1,0.4 -0.1,1.9 -0.5,4.7 -0.8,4.4 -0.8,4.1 0.2,5.1 l 0.3,0.4 4.2,-0.5 c 4.5,-0.5 5,-0.5 5.7,0.4 0.7,1 0.6,1.2 -0.9,5.5 l -1.5,4 0.4,0.7 c 0.2,0.4 0.5,0.7 0.6,0.8 0.1,0.1 1.9,0.3 3.9,0.5 4.3,0.3 4.9,0.5 5.5,1.3 0.8,1 0.6,1.5 -1.7,5.3 -1.2,1.8 -2.1,3.4 -2.2,3.6 -0.1,0.4 0.5,1.9 0.8,2 0.2,0 1.9,0.5 3.9,1.1 2,0.6 3.8,1.2 4,1.3 0.6,0.3 1.1,1.3 1,2 -0.1,0.5 -0.4,1 -1.7,2.4 -0.8,0.9 -2.1,2.4 -2.9,3.2 l -1.4,1.6 0.3,0.9 0.2,0.9 3.5,1.8 c 1.9,1 3.6,2 3.9,2.2 0.5,0.5 0.8,1.5 0.5,2.2 -0.2,0.6 -0.8,1.1 -4.6,3.8 l -2.5,1.8 v 0.800003 c -0.1,0.5 -0.1,0.9 -0.1,1 0.1,0.2 1.5,1.4 3.3,2.9 3.5,2.8 3.9,3.2 3.6,4.3 -0.3,1.1 -0.7,1.4 -4.6,3.1 -4,1.9 -3.9,1.8 -4,3.2 -0.1,0.5 0.2,0.9 2.5,3.6 1.4,1.7 2.6,3.2 2.7,3.5 0.3,0.6 0.2,1.6 -0.4,2.2 -0.4,0.5 -0.8,0.6 -4.6,1.5 l -4.2,1 -0.3,0.9 -0.4,0.9 2,3.7 c 1.2,2.1 2.1,3.9 2.1,4.1 0,0.5 -0.5,1.5 -1,1.9 -0.4,0.3 -0.9,0.3 -4.8,0.5 l -4.3,0.2 -0.5,0.8 -0.5,0.7 1.3,4.1 c 1.4,4.5 1.4,4.8 0.4,5.7 -0.7,0.7 -1.2,0.7 -5.5,0 -2.1,-0.4 -3.9,-0.6 -4,-0.6 -0.1,0 -0.5,0.3 -0.8,0.6 l -0.6,0.6 0.4,4.2 c 0.6,4.5 0.5,4.7 -0.4,5.5 -0.8,0.8 -1.4,0.7 -5.5,-0.9 -2.1,-0.7 -3.9,-1.3 -4,-1.3 -0.1,0 -0.6,0.2 -0.9,0.5 l -0.7,0.5 -0.3,4.1 c -0.3,2.8 -0.5,4.2 -0.7,4.5 -0.4,0.7 -1.4,1.2 -2,1.2 -0.3,-0.1 -2.1,-1.1 -4.1,-2.3 -3.8,-2.3 -3.6,-2.3 -4.9,-1.7 -0.5,0.3 -0.6,0.6 -1.6,4.1 -1.3,4.5 -1.6,5 -3,5.1 -1,0.1 -1.1,0 -4.7,-3.4 l -2.6,-2.3 h -0.9 c -0.5,0.1 -1,0.2 -1.1,0.4 -0.1,0.1 -1.1,1.8 -2,3.7 -1,1.9 -2,3.6 -2.2,3.8 -0.5,0.3 -1.5,0.6 -1.8,0.4 z m 3.7,-21.7 c 4,-0.6 8.3,-1.8 12.1,-3.3 2,-0.7 6.2,-2.7 6.4,-3 0.1,-0.2 0.5,-2.8 1,-5.8 0.4,-3.4 0.9,-5.9 1.1,-6.4 0.4,-1.1 1.4,-2 2.6,-2.3 0.8,-0.3 1.2,-0.3 6.3,0.4 l 5.4,0.8 0.7,-0.8 c 0.8,-0.9 4.2,-5.5 4.2,-5.7 0,-0.1 -5.7,0.2 -12.7,0.7 l -12.6,0.9 -1.1,-0.4 c -1.4,-0.6 -3.9,-2.8 -5.1,-4.6 -1.5,-2.2 -2,-3.4 -3.9,-10.2 -0.5,-1.9 -1.2,-4 -1.4,-4.7 -1.3,-3.7 -4.1,-6.2 -7.6,-6.8 -0.9,-0.1 -2.6,0 -9.000004,0.4 l -7.9,0.6 0.4,5.3 0.4,5.4 7,-0.5 c 3.8,-0.3 7.100004,-0.5 7.200004,-0.5 0.3,0.1 0.4,1 0.9,8.7 0.4,4.8 0.7,8.7 0.6,8.7 0,0 -10.700004,0.9 -23.800004,1.9 l -23.8,1.8 1.6,1.7 c 0.9,1 2.1,2.2 2.8,2.8 l 1.1,1.1 5,-1.5 c 2.7,-0.8 5.2,-1.5 5.5,-1.5 1.4,-0.1 3.1,0.8 3.8,2.1 0.2,0.3 1,3.1 1.9,6.1 1,3.3 1.7,5.6 1.9,5.7 0.1,0 1.4,0.5 2.9,0.9 8.4,2.6 17.600004,3.3 26.100004,2 z m 31.3,-6.7 c 1.4,-0.8 2.5,-2.8 2.4,-4.5 -0.2,-2.5 -2.6,-4.5 -5.2,-4.3 -2.7,0.2 -4.5,2.3 -4.2,5 0.1,2.4 1.6,4 3.9,4.4 0.8,0.2 2.3,-0.1 3.1,-0.6 z m -68.900004,4.9 c 1.6,-1 2.6,-3 2.3,-4.9 -0.5,-2.5 -2.5,-4.1 -5.1,-3.9 -1.1,0.1 -1.4,0.2 -2.2,0.7 -1.6,1.1 -2.3,2.6 -2,4.7 0.3,2.2 1.9,3.8 4.1,3.9 1,0.1 2,-0.1 2.9,-0.5 z m 74.300004,-42.3 c 3,-0.7 4.7,-2.3 5.3,-5.1 0.2,-0.7 0.2,-1.9 0.1,-3.8 -0.1,-2.100003 0,-2.800003 0.2,-3.000003 0.1,-0.2 0.8,-0.3 3.2,-0.5 3,-0.2 3,-0.2 3.1,-0.6 0.1,-0.6 -0.3,-6.5 -0.6,-8.3 l -0.2,-1.4 -5.7,-2 c -6.1,-2.2 -6.7,-2.5 -7.5,-3.8 -0.4,-0.7 -0.5,-1 -0.5,-1.9 0,-0.9 0.4,-2 2.4,-7.7 l 2.4,-6.6 -0.4,-0.6 c -0.7,-1.1 -4,-5.2 -5,-6.3 -4.3,-4.6 -8.7,-8.1 -14.1,-11.1 -6.4,-3.7 -12.9,-5.9 -20.3,-7 l -1.6,-0.2 -4,4.5 c -3.600004,3.9 -4.200004,4.5 -5.000004,4.8 -1,0.5 -2.3,0.5 -3.3,0 -0.4,-0.2 -2.5,-2 -4.7,-4.1 l -4.1,-3.6 -1.5,0.4 c -8.8,2.6 -16.9,7.3 -23.5,13.6 -1.6,1.5 -5.8,6.2 -5.8,6.5 0,0 14.2,-0.9 31.5,-2.2 29.500004,-2.1 31.500004,-2.2 32.800004,-2 10.1,1.6 17.4,7.7 18.9,15.8 0.8,4.4 -0.6,8.8 -4.3,13.1 -1.4,1.6 -4.1,4.1 -5.4,5 -0.3,0.2 -0.5,0.5 -0.5,0.6 0,0.1 0.6,0.5 1.2,1 1.7,1.1 3.9,2.9 4.7,4.1 1.6,2.000003 3,4.700003 4,8.300003 0.3,1 0.6,2 0.8,2.2 0.6,1 2.2,1.8 4,2.1 1.3,0.2 2,0.1 3.4,-0.2 z m -84.400004,-12.500003 -1.4,-18.4 -4.1,0.3 c -2.2,0.2 -4.1,0.4 -4.1,0.4 0,0.1 0.6,1.3 1.4,2.7 1.2,2.2 1.4,2.7 1.4,3.6 0.1,1.3 -0.3,2.3 -1.2,3.2 -0.4,0.4 -2.5,1.6 -5.6,3.2 l -5,2.7 -0.1,1 c -0.1,1.5 0.6,9.600003 1,11.500003 0.7,3.4 2.1,8.7 2.5,9.3 0.1,0.1 3.6,-0.1 8.3,-0.5 l 8.2,-0.6 z m 46.200004,-10.8 c 3.2,-0.9 4.9,-2.5 5,-4.7 0.1,-2.6 -1.8,-4.5 -5.1,-5.4 l -1.4,-0.4 -10.200004,0.8 -10.2,0.7 0.4,5.5 0.4,5.4 9.9,-0.8 c 8.200004,-0.6 10.000004,-0.7 11.200004,-1.1 z m 48.9,-6.3 c 3,-1.7 3.2,-6 0.4,-8.1 -2.6,-1.8 -6.4,-0.4 -7.3,2.7 -0.2,0.9 -0.1,2.3 0.3,3.2 1,2.5 4.2,3.5 6.6,2.2 z m -110.800004,7.9 c 0.8,-0.5 1.8,-1.7 2.1,-2.6 0.3,-0.9 0.2,-2.8 -0.2,-3.6 -0.2,-0.3 -0.7,-0.9 -1.1,-1.3 -2.3,-2.2 -6.2,-1.5 -7.5,1.4 -1.2,2.5 -0.1,5.3 2.4,6.3 1.1,0.5 1.3,0.5 2.4,0.3 0.8,-0.1 1.5,-0.3 1.9,-0.5 z m 51.7,-45.9 c 1.9,-0.7 3.100004,-2.6 2.900004,-4.8 -0.1,-1.4 -0.500004,-2.3 -1.600004,-3.2 -1,-0.8 -1.9,-1.1 -3.4,-1 -1.5,0.1 -2.6,0.7 -3.5,1.8 -1.4,2 -1.2,4.6 0.7,6.3 1.4,1.3 3.1,1.6 4.9,0.9 z"
     id="path6969-3" />
  <path
     style="fill:#00bdff;fill-opacity:1;stroke-width:0.174954"
     d="m 95.629676,177.10198 c -0.6,-0.4 -1,-1 -2.7,-4.2 -1,-1.9 -1.9,-3.5 -2.1,-3.7 -0.1,-0.1 -0.6,-0.2 -1.1,-0.3 h -0.8 l -2.9,2.6 c -1.5,1.5 -3,2.8 -3.3,2.9 -0.7,0.4 -1.7,0.3 -2.4,-0.3 -0.4,-0.4 -0.6,-1 -1.7,-4.5 l -1.1,-4 -0.9,-0.3 -0.9,-0.4 -3.6,2.2 c -2,1.2 -3.8,2.2 -4.1,2.2 -0.7,0.1 -1.7,-0.4 -2,-1.1 -0.2,-0.3 -0.4,-1.9 -0.7,-4.6 l -0.3,-4.1 -0.6,-0.3 c -0.2,-0.3 -0.6,-0.5 -0.8,-0.5 -0.2,-0.1 -1.7,0.3 -4.2,1.2 -4.4,1.7 -4.9,1.7 -5.8,0.7 l -0.6,-0.7 0.4,-4.5 0.4,-4.4 -0.6,-0.6 -0.6,-0.6 -4,0.6 c -2.1,0.4 -4.1,0.6 -4.4,0.6 -1.1,-0.1 -2,-1.1 -1.9,-2.2 0,-0.2 0.6,-2.2 1.2,-4.3 l 1.2,-3.8 -0.5,-0.7 -0.5,-0.7 -4.4,-0.2 -4.5,-0.3 -0.6,-0.7 c -0.9,-1 -0.8,-1.5 1.5,-5.7 1.1,-1.9 1.9,-3.5 1.9,-3.6 0,-0.3 -0.5,-1.6 -0.7,-1.7 -0.1,-0.1 -1.9,-0.5 -4,-1 -2.6,-0.7 -4.1,-1.1 -4.4,-1.3 -0.7,-0.5 -1.1,-1.5 -0.8,-2.2 0,-0.3 1.3,-2 2.8,-3.7 l 2.7,-3.3 -0.3,-0.9 -0.2,-0.9 -3.8,-1.8 c -4.3,-2 -4.6,-2.2 -4.5,-3.5 0,-0.4 0.2,-0.9 0.3,-1.1 0.1,-0.2 1.6,-1.5 3.4,-2.9 3.1,-2.5 3.1,-2.5 3.1,-3.3 0.1,-0.4 0,-0.9 0,-1 0,-0.2 -1.6,-1.400003 -3.5,-2.800003 -2.8,-2 -3.4,-2.5 -3.6,-3.1 -0.3,-0.6 -0.2,-1.4 0.3,-2 0.2,-0.2 1.9,-1.2 3.9,-2.3 2.4,-1.2 3.7,-2 3.8,-2.2 0.1,-0.2 0.2,-0.7 0.2,-1.1 0,-0.7 0,-0.7 -2.3,-3.2 -3.4,-3.6 -3.5,-3.8 -3.4,-4.7 0.1,-1.4 0.5,-1.7 5,-3 l 4,-1.2 0.3,-0.8 c 0.2,-0.5 0.3,-1 0.3,-1.1 -0.1,-0.2 -1,-1.7 -2.2,-3.5 -1.1,-1.9 -2,-3.6 -2.1,-3.9 -0.1,-0.5 -0.1,-0.7 0.2,-1.2 0.7,-1.1 1,-1.2 5.1,-1.6 2.1,-0.1 4,-0.3 4.2,-0.4 0.3,0 1.2,-1.2 1.2,-1.6 0,-0.1 -0.6,-1.9 -1.3,-3.9 -1.5,-4.1 -1.7,-4.8 -0.9,-5.6 0.8,-0.9 1,-0.9 5.6,-0.4 l 4.1,0.5 0.6,-0.6 c 0.3,-0.3 0.6,-0.7 0.6,-0.8 0,-0.2 -0.2,-1.9 -0.6,-4 -0.6,-4.4 -0.7,-4.9 0,-5.6 1,-0.9 1.3,-0.9 5.8,0.5 l 4,1.3 0.8,-0.5 0.7,-0.5 0.2,-4.4 0.2,-4.4 0.6,-0.6 c 1.2,-1.1 1.4,-1 5.7,1.3 l 3.7,2.1 0.9,-0.4 0.9,-0.4 0.9,-4.1 c 1,-3.8 1.1,-4.1 1.6,-4.6 0.6,-0.6 1.5,-0.8 2.2,-0.5 0.3,0.1 1.8,1.4 3.5,2.8 2.7,2.2 3.1,2.5 3.6,2.5 1.4,-0.1 1.3,-0.1 3.1,-4 0.9,-1.9 1.9,-3.8 2.1,-4 0.6,-0.7 1.4,-0.9 2.2,-0.6 0.5,0.2 1.2,0.9 3.3,3.6 l 2.6,3.2 h 1.000004 c 0.5,0 1,-0.1 1.1,-0.2 0.1,-0.2 1.2,-1.7 2.4,-3.4 2.6,-3.5 2.9,-3.8 4.2,-3.6 1,0.2 1.3,0.6 3.3,4.6 1,1.8 1.8,3.4 1.8,3.4 0,0 0.4,0.1 1,0.2 l 0.9,0.2 3,-2.7 c 3.2,-3 3.9,-3.4 4.8,-3.2 1.1,0.3 1.4,0.9 2.6,5.2 l 1.2,3.9 0.9,0.3 1,0.3 3.5,-2.1 c 3.9,-2.4 4.4,-2.6 5.4,-1.9 0.8,0.6 1,1.3 1.3,5.6 0.2,2 0.4,3.7 0.5,3.9 0.1,0.1 0.5,0.4 0.8,0.6 l 0.7,0.4 3.8,-1.4 c 2.1,-0.8 4,-1.5 4.3,-1.5 0.8,0 1.7,0.6 2,1.4 0.2,0.5 0.2,0.9 -0.2,4.7 l -0.5,4.2 0.5,0.5 c 0.3,0.2 0.6,0.5 0.7,0.6 0.1,0.1 2.1,-0.1 4.4,-0.5 2.6,-0.4 4.3,-0.6 4.6,-0.5 0.6,0.2 1.4,1.1 1.5,1.7 0,0.4 -0.4,1.9 -1.2,4.5 -1.4,4.3 -1.3,4 -0.5,5.2 l 0.3,0.4 4.1,0.1 c 4.6,0.2 5,0.3 5.6,1.3 0.5,1 0.5,1.2 -1.7,5.2 l -2.1,3.8 0.3,0.7 c 0.2,0.4 0.4,0.8 0.5,0.9 0.2,0.1 1.8,0.6 3.8,1 4.2,1 4.8,1.3 5.3,2.1 0.6,1.2 0.3,1.6 -2.5,5 -1.4,1.7 -2.6,3.2 -2.6,3.3 -0.2,0.4 0.1,1.9 0.4,2.1 0.2,0.1 1.8,0.8 3.7,1.7 1.9,0.8 3.6,1.7 3.7,1.8 0.6,0.4 0.9,1.5 0.7,2.2 -0.1,0.5 -0.5,0.9 -1.9,2.1 -1,0.8 -2.5,2 -3.4,2.8 l -1.6,1.3 0.1,0.9 0.1,1 3.2,2.300003 c 1.7,1.2 3.3,2.5 3.5,2.7 0.5,0.5 0.6,1.5 0.2,2.2 -0.3,0.6 -0.9,1 -5,3.1 l -2.8,1.5 -0.2,0.8 c -0.1,0.4 -0.1,0.8 -0.1,1 -0.1,0.1 1.2,1.5 2.8,3.2 3,3.3 3.3,3.8 2.9,4.8 -0.4,1 -0.9,1.3 -5,2.5 -4.2,1.2 -4.1,1.2 -4.5,2.5 -0.1,0.5 0.2,1 2,3.9 1.1,1.9 2.1,3.6 2.2,3.9 0.2,0.7 -0.1,1.6 -0.7,2.1 -0.5,0.4 -0.9,0.5 -4.8,0.9 l -4.3,0.4 -0.5,0.8 -0.5,0.8 1.5,4 c 0.8,2.1 1.4,4.1 1.4,4.3 0,0.5 -0.7,1.4 -1.2,1.7 -0.5,0.3 -0.9,0.2 -4.8,-0.2 l -4.3,-0.4 -0.6,0.7 -0.7,0.6 0.7,4.2 c 0.8,4.7 0.7,5 -0.3,5.8 -0.8,0.5 -1.3,0.5 -5.5,-0.9 -2,-0.6 -3.8,-1.1 -3.9,-1.1 -0.1,0 -0.5,0.2 -0.9,0.5 l -0.7,0.5 -0.1,4.2 c -0.2,4.5 -0.2,4.7 -1.2,5.4 -0.9,0.6 -1.6,0.4 -5.4,-1.7 -1.9,-1 -3.6,-1.9 -3.8,-1.9 -0.1,0 -0.5,0.1 -0.9,0.3 l -0.8,0.4 -0.9,4 c -0.7,2.8 -1.1,4.2 -1.3,4.5 -0.5,0.5 -1.6,0.9 -2.2,0.8 -0.3,-0.1 -1.9,-1.4 -3.7,-2.9 -3.4,-2.8 -3.3,-2.8 -4.6,-2.3 -0.5,0.2 -0.7,0.4 -2.2,3.8 -1.9,4.2 -2.3,4.7 -3.7,4.6 -1,-0.1 -1.1,-0.2 -4.2,-4 l -2.1,-2.8 h -0.9 c -0.6,-0.1 -1.1,0 -1.2,0.1 -0.2,0.2 -1.3,1.7 -2.6,3.5 -1.300004,1.7 -2.500004,3.2 -2.700004,3.4 -0.5,0.2 -1.5,0.3 -1.9,0.1 z m 6.900004,-20.9 c 4,-0.1 8.5,-0.6 12.5,-1.5 2,-0.4 6.5,-1.8 6.8,-2.1 0.1,-0.1 0.9,-2.6 1.8,-5.6 0.9,-3.3 1.7,-5.7 2,-6.1 0.5,-1 1.7,-1.8 2.9,-1.9 0.9,-0.2 1.2,-0.1 6.2,1.4 l 5.2,1.5 0.8,-0.7 c 0.9,-0.8 5,-4.9 5,-5 0,-0.1 -5.7,-0.6 -12.6,-1.1 l -12.6,-1 -1,-0.6 c -1.4,-0.8 -3.6,-3.4 -4.5,-5.3 -1.2,-2.3 -1.4,-3.6 -2.3,-10.7 -0.3,-1.9 -0.6,-4.1 -0.7,-4.8 -0.8,-3.9 -3.2,-6.7 -6.5,-7.8 -0.9,-0.3 -2.6,-0.4 -9.000004,-0.9 l -7.9,-0.6 -0.4,5.3 -0.4,5.4 7,0.5 c 3.8,0.2 7.100004,0.5 7.200004,0.6 0.3,0.1 0.2,1.1 -0.3,8.7 -0.4,4.8 -0.7,8.7 -0.7,8.7 0,0 -10.800004,-0.7 -23.900004,-1.6 l -23.7,-1.7 1.3,2 c 0.7,1 1.8,2.5 2.3,3.1 l 0.9,1.2 5.2,-0.7 c 2.8,-0.4 5.3,-0.7 5.6,-0.7 1.4,0.1 3,1.3 3.5,2.6 0.1,0.4 0.6,3.2 1,6.4 0.5,3.3 0.9,5.7 1,5.8 0.2,0.1 1.4,0.8 2.8,1.4 7.9,3.8 16.9,5.9 25.500004,5.8 z m 32,-2.1 c 1.5,-0.6 2.8,-2.4 3,-4 0.1,-2.6 -1.9,-4.9 -4.5,-5.1 -2.7,-0.2 -4.8,1.6 -5,4.4 -0.1,2.3 1.1,4.1 3.3,4.9 0.7,0.2 2.3,0.2 3.2,-0.2 z m -68.900004,-5.2 c 1.7,-0.7 3,-2.6 2.9,-4.5 0,-2.6 -1.8,-4.4 -4.4,-4.6 -1.1,-0.1 -1.4,0 -2.2,0.4 -1.8,0.8 -2.7,2.3 -2.8,4.3 0,2.2 1.4,4 3.5,4.5 1.1,0.3 2,0.2 3,-0.1 z m 79.600004,-31 c 3.1,-0.3 5,-1.6 6.1,-4.3 0.2,-0.6 0.4,-1.8 0.6,-3.7 0.3,-2 0.4,-2.8 0.6,-2.9 0.2,-0.2 0.9,-0.2 3.3,-0.1 3,0.3 3,0.3 3.1,-0.1 0.2,-0.5 0.7,-6.5 0.7,-8.300003 l -0.1,-1.4 -5.3,-2.8 c -5.7,-3.1 -6.3,-3.5 -6.9,-4.9 -0.2,-0.7 -0.2,-1.1 -0.1,-1.9 0.1,-0.9 0.6,-1.9 3.5,-7.3 l 3.3,-6.2 -0.3,-0.6 c -0.6,-1.3 -3.2,-5.8 -4,-7 -3.6,-5.2 -7.5,-9.3 -12.3,-13.1 -5.9,-4.5 -12,-7.7 -19.2,-9.8 l -1.5,-0.4 -4.6,3.8 c -4.1,3.3 -4.8,3.9 -5.6,4.1 -1.2,0.3 -2.4,0 -3.3,-0.6 -0.4,-0.2 -2.2,-2.3 -4.100004,-4.7 l -3.5,-4.2 -1.5,0.2 c -9.1,1.3 -17.8,4.8 -25.3,10.1 -1.7,1.2 -6.6,5.3 -6.6,5.5 0,0.1 14.1,1.2 31.4,2.5 29.500004,2.2 31.500004,2.4 32.700004,2.8 9.8,3.1 16.1,10.1 16.4,18.4 0.2,4.5 -1.9,8.5 -6.1,12.3 -1.7,1.4 -4.7,3.5 -6.1,4.2 -0.4,0.1 -0.6,0.3 -0.6,0.4 0,0.1 0.5,0.7 1.1,1.2 1.5,1.400003 3.3,3.500003 4.1,4.700003 1.3,2.3 2.2,5.2 2.7,8.8 0.1,1.1 0.3,2.1 0.4,2.4 0.4,1 1.9,2.1 3.6,2.6 1.4,0.4 2,0.4 3.4,0.3 z m -81.600004,-24.700003 1.3,-18.4 -4.1,-0.3 c -2.2,-0.1 -4.1,-0.2 -4.1,-0.2 0,0.1 0.4,1.4 1,2.9 0.8,2.3 0.9,2.8 0.9,3.7 -0.1,1.3 -0.6,2.2 -1.7,3 -0.5,0.4 -2.7,1.3 -6.1,2.4 l -5.3,1.9 -0.2,1 c -0.3,1.5 -0.8,9.6 -0.7,11.500003 0.2,3.5 0.8,9 1.2,9.6 0,0.1 3.5,0.4 8.2,0.7 l 8.2,0.6 z m 47.200004,-3.9 c 3.4,-0.4 5.3,-1.8 5.7,-4 0.5,-2.5 -1.1,-4.7 -4.3,-6 l -1.2,-0.6 -10.2,-0.7 -10.300004,-0.8 -0.4,5.4 -0.4,5.5 9.9,0.7 c 8.300004,0.6 10.100004,0.7 11.200004,0.5 z m 49.4,0.9 c 3.2,-1.2 4.1,-5.5 1.6,-7.9 -2.3,-2.2 -6.3,-1.4 -7.7,1.6 -0.3,0.8 -0.4,2.2 -0.2,3.1 0.7,2.6 3.7,4.2 6.3,3.2 z m -110.800004,-8.4 c 0.9,-0.4 2,-1.4 2.5,-2.3 0.4,-0.8 0.5,-2.7 0.3,-3.5 -0.2,-0.4 -0.5,-1 -0.9,-1.5 -2,-2.5 -5.9,-2.4 -7.6,0.3 -1.5,2.3 -0.9,5.2 1.5,6.6 0.9,0.6 1.1,0.7 2.3,0.7 0.7,0 1.5,-0.1 1.9,-0.3 z m 57.900004,-37.8 c 2,-0.4 3.4,-2.1 3.5,-4.3 0.1,-1.5 -0.2,-2.4 -1,-3.4 -0.9,-1 -1.8,-1.5 -3.3,-1.6 -1.5,-0.1 -2.7,0.3 -3.7,1.3 -1.7,1.8 -1.8,4.5 -0.3,6.4 1.2,1.4 2.9,2 4.8,1.6 z"
     id="path6969-3-6" />
  <path
     style="fill:#418b4f;fill-opacity:1;stroke-width:0.174954"
     d="m 91.929676,176.90198 c -0.7,-0.4 -1,-1 -2.4,-4.3 -0.9,-2 -1.7,-3.7 -1.8,-3.9 -0.2,-0.1 -0.6,-0.3 -1.1,-0.4 l -0.8,-0.1 -3.1,2.4 c -1.7,1.4 -3.3,2.6 -3.5,2.7 -0.7,0.4 -1.8,0.1 -2.3,-0.5 -0.5,-0.4 -0.7,-1 -1.4,-4.6 l -0.9,-4.1 -0.9,-0.4 -0.8,-0.4 -3.8,1.9 c -2,1.1 -3.9,1.9 -4.2,2 -0.7,0 -1.6,-0.6 -1.9,-1.3 -0.2,-0.4 -0.3,-2 -0.3,-4.7 l -0.1,-4 -0.5,-0.5 c -0.3,-0.2 -0.6,-0.4 -0.8,-0.5 -0.2,-0.1 -1.8,0.2 -4.3,1 -4.5,1.3 -5,1.3 -5.8,0.2 l -0.6,-0.7 0.8,-4.5 0.7,-4.4 -0.6,-0.6 -0.6,-0.6 -3.9,0.3 c -2.2,0.2 -4.2,0.3 -4.5,0.3 -1.1,-0.2 -1.9,-1.3 -1.7,-2.4 0,-0.2 0.7,-2.1 1.5,-4.2 l 1.5,-3.7 -0.5,-0.7 -0.4,-0.7 -4.4,-0.6 -4.5,-0.6 -0.5,-0.7 c -0.9,-1.2 -0.7,-1.7 1.9,-5.6 1.2,-1.8 2.2,-3.4 2.2,-3.5 0,-0.3 -0.5,-1.6 -0.6,-1.8 -0.1,0 -1.9,-0.6 -4,-1.3 -2.5,-0.8 -4,-1.3 -4.3,-1.6 -0.6,-0.5 -0.9,-1.5 -0.6,-2.2 0.1,-0.3 1.5,-1.9 3.1,-3.5 l 2.9,-3 -0.2,-1 -0.1,-1 -3.7,-2 c -4.1,-2.3 -4.4,-2.5 -4.2,-3.8 0,-0.4 0.2,-0.9 0.3,-1.1 0.2,-0.2 1.8,-1.4 3.6,-2.600003 3.3,-2.3 3.3,-2.3 3.4,-3.1 0.1,-0.4 0.1,-0.8 0.1,-1 -0.1,-0.2 -1.5,-1.5 -3.3,-3 -2.7,-2.2 -3.2,-2.8 -3.4,-3.3 -0.2,-0.8 0,-1.5 0.5,-2.1 0.1,-0.2 2,-1 4.1,-1.9 2.4,-1.1 3.8,-1.8 3.9,-2 0.1,-0.2 0.2,-0.7 0.2,-1 0.1,-0.7 0.1,-0.8 -2,-3.4 -3.1,-3.8 -3.2,-4.1 -3.1,-5 0.2,-1.4 0.7,-1.6 5.3,-2.6 l 4,-0.9 0.4,-0.8 c 0.2,-0.5 0.4,-1 0.3,-1.1 0,-0.1 -0.8,-1.8 -1.8,-3.6 -1,-1.9 -1.8,-3.7 -1.9,-4.1 -0.1,-0.4 0,-0.7 0.3,-1.1 0.8,-1.1 1.1,-1.1 5.2,-1.2 2.1,0 4,-0.1 4.2,-0.1 0.3,0 1.3,-1.1 1.4,-1.5 0,-0.1 -0.5,-1.9 -1.1,-4 -1.2,-4.2 -1.3,-4.9 -0.5,-5.6 0.9,-0.9 1.1,-0.9 5.6,-0.1 l 4.1,0.8 0.6,-0.5 c 0.4,-0.3 0.7,-0.7 0.7,-0.8 0.1,-0.1 -0.1,-1.9 -0.3,-4 -0.3,-4.4 -0.3,-4.9 0.4,-5.6 1,-0.9 1.3,-0.8 5.7,0.9 l 4,1.6 0.7,-0.5 0.8,-0.4 0.5,-4.4 0.6,-4.3 0.6,-0.6 c 1.2,-1 1.5,-0.9 5.6,1.8 l 3.5,2.3 1,-0.3 0.9,-0.3 1.2,-4 c 1.2,-3.8 1.3,-4.1 1.9,-4.5 0.6,-0.6 1.6,-0.7 2.3,-0.4 0.2,0.2 1.7,1.5 3.2,3 2.5,2.5 2.9,2.8 3.4,2.8 1.4,0 1.4,0 3.4,-3.7 1.1,-1.9 2.2,-3.7 2.4,-3.9 0.7,-0.6 1.500004,-0.7 2.200004,-0.4 0.5,0.3 1.1,1 3,3.8 l 2.4,3.4 1,0.1 c 0.5,0 1,-0.1 1.1,-0.2 0.1,-0.1 1.3,-1.5 2.7,-3.2 2.8,-3.3 3.2,-3.5 4.4,-3.2 1,0.2 1.2,0.6 3,4.8 0.8,1.9 1.5,3.5 1.5,3.5 0,0 0.5,0.1 1,0.3 l 0.9,0.2 3.2,-2.5 c 3.4,-2.7 4.1,-3.1 5,-2.7 1.1,0.3 1.3,1 2.2,5.3 l 0.9,4 0.9,0.4 0.9,0.3 3.7,-1.9 c 4.1,-2.1 4.6,-2.2 5.6,-1.4 0.7,0.7 0.8,1.3 0.9,5.7 0,2 0.1,3.7 0.2,3.8 0,0.2 0.4,0.5 0.7,0.7 l 0.6,0.5 4,-1.1 c 2.1,-0.7 4.1,-1.2 4.4,-1.2 0.7,0 1.6,0.7 1.9,1.5 0.2,0.6 0.1,0.9 -0.6,4.7 l -0.8,4.1 0.5,0.6 c 0.3,0.3 0.6,0.6 0.7,0.7 0.1,0.1 2,0 4.3,-0.2 2.7,-0.3 4.4,-0.3 4.7,-0.2 0.6,0.2 1.3,1.2 1.3,1.8 0,0.4 -0.5,1.9 -1.5,4.5 -1.7,4.2 -1.6,3.8 -0.9,5.1 l 0.3,0.4 4.1,0.4 c 4.6,0.5 5,0.6 5.5,1.6 0.5,1.1 0.4,1.4 -2.1,5.2 l -2.3,3.6 0.2,0.7 c 0.1,0.4 0.3,0.9 0.5,1 0.1,0.1 1.7,0.7 3.6,1.3 4.1,1.2 4.8,1.5 5.2,2.4 0.5,1.2 0.2,1.7 -2.9,4.8 -1.5,1.6 -2.8,3 -2.9,3.1 -0.2,0.3 0.1,2 0.3,2.1 0.2,0.1 1.8,1 3.6,2 1.8,1 3.4,1.9 3.6,2.1 0.5,0.4 0.8,1.5 0.5,2.2 -0.2,0.5 -0.6,0.9 -2.1,1.9 -1,0.8 -2.6,1.900003 -3.6,2.600003 l -1.6,1.2 v 0.9 1 l 3,2.5 c 1.7,1.4 3.1,2.7 3.3,3 0.5,0.5 0.5,1.6 0.1,2.2 -0.3,0.6 -1,0.9 -5.3,2.7 l -2.9,1.3 -0.2,0.7 c -0.1,0.5 -0.2,0.9 -0.2,1 -0.1,0.1 1.1,1.7 2.5,3.5 2.9,3.5 3.1,4 2.6,5 -0.5,1 -1,1.2 -5.1,2.1 -4.4,0.9 -4.3,0.8 -4.7,2.2 -0.1,0.5 0,0.9 1.7,4 1,2 1.8,3.8 1.9,4 0.2,0.7 -0.2,1.6 -0.9,2.1 -0.5,0.4 -0.9,0.4 -4.8,0.5 l -4.3,0.1 -0.6,0.7 -0.5,0.8 1.2,4.1 c 0.6,2.2 1.1,4.2 1.1,4.4 -0.1,0.6 -0.8,1.4 -1.4,1.7 -0.5,0.2 -0.9,0.1 -4.8,-0.6 l -4.3,-0.7 -0.6,0.6 -0.7,0.6 0.4,4.2 c 0.4,4.8 0.3,5 -0.8,5.7 -0.8,0.5 -1.3,0.4 -5.4,-1.2 -2,-0.8 -3.6,-1.4 -3.8,-1.4 -0.1,0 -0.5,0.1 -0.9,0.4 l -0.7,0.5 -0.5,4.1 c -0.5,4.5 -0.5,4.7 -1.6,5.4 -0.9,0.5 -1.6,0.2 -5.2,-2.1 -1.9,-1.2 -3.5,-2.2 -3.6,-2.2 -0.1,0 -0.6,0.1 -1,0.3 l -0.8,0.3 -1.2,3.9 c -0.9,2.7 -1.4,4.1 -1.6,4.3 -0.6,0.6 -1.7,0.9 -2.3,0.7 -0.2,-0.1 -1.8,-1.5 -3.4,-3.1 -3.2,-3.1 -3.1,-3 -4.5,-2.7 -0.5,0.1 -0.7,0.4 -2.4,3.6 -2.3,4.1 -2.7,4.6 -4.1,4.4 -0.9,-0.2 -1.1,-0.3 -3.8,-4.4 l -2,-2.8 -0.9,-0.2 c -0.5,-0.1 -1.000004,0 -1.200004,0.1 -0.1,0.1 -1.4,1.6 -2.8,3.2 -1.4,1.7 -2.7,3.1 -2.9,3.2 -0.6,0.3 -1.6,0.3 -1.9,0 z m 8.400004,-20.3 c 4,0.2 8.5,0 12.6,-0.6 2,-0.3 6.6,-1.3 6.8,-1.6 0.2,-0.1 1.2,-2.5 2.2,-5.4 1.2,-3.2 2.2,-5.6 2.5,-6 0.6,-0.9 1.9,-1.6 3.1,-1.7 0.8,-0.1 1.2,0 6,1.8 l 5.1,2 0.9,-0.7 c 1,-0.7 5.3,-4.5 5.3,-4.6 0,-0.1 -5.6,-1 -12.5,-2.1 l -12.5,-1.9 -0.9,-0.6 c -1.4,-0.9 -3.3,-3.6 -4.1,-5.6 -1,-2.4 -1.2,-3.7 -1.6,-10.8 -0.1,-2 -0.2,-4.2 -0.3,-4.9 -0.5,-3.9 -2.7,-6.9 -5.9,-8.2 -0.9,-0.4 -2.6,-0.7 -8.900004,-1.6 l -7.8,-1.2 -0.8,5.3 -0.8,5.3 6.9,1 c 3.8,0.6 7.100004,1.1 7.200004,1.2 0.2,0.1 0.1,1 -1,8.7 -0.7,4.7 -1.3,8.5 -1.3,8.5 0,0.1 -10.700004,-1.4 -23.700004,-3.3 l -23.6,-3.4 1.2,2 c 0.7,1.1 1.6,2.6 2.1,3.3 l 0.8,1.3 5.2,-0.3 c 2.9,-0.2 5.4,-0.3 5.7,-0.3 1.4,0.2 2.8,1.5 3.3,2.9 0.1,0.3 0.3,3.2 0.5,6.3 0.2,3.4 0.5,5.9 0.6,6 0.1,0.1 1.3,0.8 2.7,1.6 7.5,4.3 16.4,7 25.000004,7.6 z m 32,0.3 c 1.6,-0.5 3,-2.2 3.3,-3.9 0.4,-2.5 -1.5,-4.9 -4.1,-5.3 -2.7,-0.4 -4.9,1.2 -5.3,3.9 -0.3,2.4 0.7,4.3 2.9,5.2 0.8,0.3 2.3,0.3 3.2,0.1 z m -68.300004,-10.3 c 1.8,-0.6 3.2,-2.3 3.3,-4.3 0.1,-2.5 -1.6,-4.5 -4.1,-4.9 -1.1,-0.2 -1.4,-0.1 -2.3,0.2 -1.8,0.7 -2.9,2.1 -3,4.1 -0.2,2.3 1,4.2 3.1,4.8 1,0.3 2,0.4 3,0.1 z m 81.700004,-25.1 c 3.1,0 5.1,-1.2 6.3,-3.8 0.3,-0.6 0.6,-1.8 1,-3.6 0.3,-2.1 0.5,-2.8 0.7,-3 0.3,-0.1 0.9,-0.1 3.3,0.3 3,0.4 3,0.4 3.2,0 0.2,-0.5 1.1,-6.4 1.2,-8.1 l 0.1,-1.4 -5.1,-3.300003 c -5.5,-3.4 -6,-3.9 -6.5,-5.4 -0.2,-0.6 -0.2,-1 0,-1.9 0.2,-0.9 0.7,-1.9 4,-7 l 3.7,-5.9 -0.2,-0.6 c -0.5,-1.3 -2.8,-6 -3.5,-7.3 -3.2,-5.5 -6.7,-9.8 -11.3,-13.9 -5.5,-5 -11.4,-8.6 -18.4,-11.3 l -1.5,-0.5 -4.9,3.5 c -4.3,3 -5.1,3.5 -5.9,3.6 -1.1,0.2 -2.3,-0.1 -3.2,-0.8 -0.3,-0.2 -2,-2.5 -3.8,-4.9 l -3.1,-4.5 -1.6,0.1 c -9.100004,0.6 -18.100004,3.4 -25.900004,8.2 -1.8,1.1 -7,4.8 -7,5 0,0.1 14,2.2 31.2,4.8 29.200004,4.4 31.200004,4.7 32.400004,5.1 9.6,3.9 15.3,11.4 15,19.6 -0.2,4.5 -2.5,8.4 -7.1,11.8 -1.7,1.3 -4.9,3.2 -6.4,3.800003 -0.3,0.1 -0.5,0.3 -0.5,0.4 -0.1,0.1 0.4,0.6 1,1.3 1.4,1.4 3.1,3.7 3.7,5 1.1,2.3 1.8,5.3 2,8.9 0.1,1 0.2,2.1 0.3,2.4 0.4,1 1.8,2.2 3.4,2.9 1.3,0.4 2,0.6 3.4,0.5 z m -79.600004,-30.600003 2.6,-18.2 -4,-0.6 c -2.3,-0.3 -4.1,-0.6 -4.1,-0.5 0,0.1 0.3,1.4 0.8,2.9 0.6,2.4 0.7,2.9 0.6,3.8 -0.2,1.3 -0.8,2.2 -1.9,2.9 -0.5,0.3 -2.8,1 -6.2,1.9 l -5.5,1.5 -0.2,1 c -0.5,1.4 -1.6,9.5 -1.6,11.4 -0.1,3.500003 0.2,9.000003 0.4,9.600003 0.1,0.1 3.5,0.7 8.2,1.4 l 8.2,1.2 z m 47.400004,-0.4 c 3.3,-0.2 5.4,-1.4 6,-3.6 0.6,-2.4 -0.8,-4.7 -3.9,-6.3 l -1.2,-0.6 -10.1,-1.5 -10.200004,-1.5 -0.8,5.3 -0.8,5.4 9.800004,1.4 c 8.2,1.2 10,1.5 11.2,1.4 z m 49.1,4.5 c 3.3,-1 4.5,-5.2 2.2,-7.8 -2.1,-2.3 -6.2,-1.8 -7.7,1.1 -0.5,0.7 -0.6,2.1 -0.5,3.1 0.5,2.6 3.4,4.4 6,3.6 z m -109.800004,-16.5 c 0.9,-0.3 2.1,-1.3 2.6,-2.1 0.5,-0.8 0.7,-2.7 0.5,-3.5 -0.1,-0.4 -0.4,-1.1 -0.7,-1.5 -1.8,-2.7 -5.7,-2.9 -7.7,-0.3 -1.6,2.2 -1.2,5.2 1.1,6.7 0.9,0.7 1.1,0.8 2.2,0.9 0.8,0 1.5,0 2,-0.2 z m 60.500004,-33.5 c 2,-0.2 3.5,-1.8 3.8,-4 0.2,-1.4 0,-2.4 -0.8,-3.5 -0.8,-1 -1.7,-1.5 -3.1,-1.8 -1.5,-0.2 -2.8,0.2 -3.8,1.1 -1.9,1.6 -2.2,4.2 -0.8,6.3 1.1,1.5 2.8,2.2 4.7,1.9 z"
     id="path6969-3-6-7" />
</svg>
